<svg id="Layer_1" xmlns="http://www.w3.org/2000/svg" viewBox="0 0 200 86.27"><defs><style>.cls-1{fill:#8430d9;stroke-width:0px;}</style></defs><path class="cls-1" d="M40.96,29.5v-6.05c0-4.83-2.4-7.3-12.2-7.3h-12.77v31.82h10.21v-11.17h2.53c9.83,0,12.23-2.46,12.23-7.3ZM30.75,29.21c0,.83-.54,1.09-1.98,1.09h-2.53v-7.65h2.53c1.47,0,1.98.29,1.98,1.09v5.47Z"></path><path class="cls-1" d="M48,16.15l-8.32,31.82h9.96l.99-5.31h6.21l.93,5.31h10.4l-8.39-31.82s-11.78,0-11.78,0ZM51.84,36.12l2.02-10.63,1.82,10.63s-3.84,0-3.84,0Z"></path><polygon class="cls-1" points="65.22 22.65 71.98 22.65 71.98 47.97 82.19 47.97 82.19 22.65 88.91 22.65 88.91 16.15 65.22 16.15 65.22 22.65"></polygon><path class="cls-1" d="M116.41,29.5v-6.05c0-4.83-2.4-7.3-12.2-7.3h-12.74v31.82h10.21v-11.17h1.41l3.04,11.17h10.56l-3.68-12.45c2.56-1.22,3.39-3.2,3.39-6.02ZM106.19,29.21c0,.83-.54,1.09-1.98,1.09h-2.53v-7.65h2.53c1.47,0,1.98.29,1.98,1.09v5.47Z"></path><rect class="cls-1" x="119.61" y="16.15" width="10.21" height="31.82"></rect><path class="cls-1" d="M158.37,40.86v-17.61c0-4.87-2.53-7.65-12.8-7.65s-12.8,2.78-12.8,7.65v17.57c0,4.87,2.53,7.65,12.8,7.65s12.8-2.75,12.8-7.62ZM148.19,40.54c0,.93-.58,1.34-2.59,1.34s-2.59-.38-2.59-1.34v-16.97c0-.93.58-1.34,2.59-1.34s2.59.38,2.59,1.34v16.97Z"></path><polygon class="cls-1" points="160.48 16.15 160.48 22.65 167.21 22.65 167.21 47.97 177.42 47.97 177.42 22.65 184.17 22.65 184.17 16.15 160.48 16.15"></polygon><path class="cls-1" d="M24.63,63.78c-.32-.22-.67-.42-1.09-.58-.38-.16-.8-.32-1.22-.45s-.8-.26-1.22-.35c-.38-.1-.77-.22-1.09-.38s-.58-.32-.77-.48c-.19-.16-.29-.38-.29-.67v-1.76c0-.13.03-.26.06-.35.06-.1.13-.16.26-.22.13-.06.32-.13.54-.13.22-.03.54-.03.9-.03s.64.03.86.06.42.1.58.16c.13.06.22.16.29.26.03.1.06.22.06.32v2.24h3.01v-2.24c0-.42-.06-.8-.22-1.15s-.42-.64-.77-.9c-.38-.26-.86-.45-1.47-.58-.61-.13-1.38-.19-2.3-.19s-1.7.06-2.3.19c-.64.13-1.12.32-1.47.54s-.64.51-.8.86c-.16.35-.26.74-.26,1.15v2.08c0,.45.1.83.29,1.15.19.32.45.61.77.83.32.22.67.42,1.06.61.38.16.8.32,1.22.45s.83.26,1.22.35c.38.13.74.26,1.06.38s.54.29.74.48c.19.16.29.38.29.64v1.79c0,.13-.03.26-.1.35-.06.1-.16.16-.29.22s-.32.1-.58.13c-.22.03-.54.06-.86.06-.38,0-.7-.03-.93-.06-.22-.03-.42-.1-.54-.16s-.22-.16-.29-.26-.1-.22-.1-.32v-2.24h-3.04v2.24c0,.42.06.8.22,1.15s.42.64.77.9.86.45,1.47.58c.64.13,1.44.19,2.4.19s1.73-.06,2.37-.19c.64-.13,1.12-.32,1.47-.54s.61-.51.77-.86c.16-.35.22-.74.22-1.15v-2.08c0-.45-.1-.83-.29-1.15-.06-.38-.29-.64-.61-.9Z"></path><path class="cls-1" d="M46.3,57.12c-.38-.29-.86-.48-1.5-.61s-1.47-.22-2.46-.22-1.79.06-2.46.22c-.64.13-1.15.35-1.54.61-.38.29-.64.61-.77.99-.16.38-.22.8-.22,1.31v8.1c0,.48.06.9.22,1.28s.42.7.77.99c.38.29.9.48,1.54.61s1.47.22,2.46.22,1.82-.06,2.46-.22c.64-.13,1.15-.35,1.5-.61.35-.29.64-.61.77-.99.16-.38.22-.83.22-1.28v-8.1c0-.48-.06-.93-.22-1.31-.13-.38-.38-.7-.77-.99ZM44.29,67.43c0,.13-.03.26-.1.38s-.16.26-.29.35-.32.19-.58.26-.58.1-.99.1c-.38,0-.7-.03-.96-.1s-.45-.13-.58-.26c-.13-.1-.22-.22-.29-.35s-.1-.26-.1-.38v-7.91c0-.13.03-.26.1-.38.06-.13.16-.26.29-.35s.32-.19.58-.26.58-.1.96-.1c.42,0,.74.03.99.1s.45.13.61.26.22.22.29.35c.03.13.06.26.06.38v7.91h0Z"></path><polygon class="cls-1" points="59.68 70.41 62.72 70.41 62.72 65.09 67.65 65.09 67.65 62.95 62.72 62.95 62.72 58.66 67.88 58.66 67.88 56.51 59.68 56.51 59.68 70.41"></polygon><polygon class="cls-1" points="79.11 58.66 82.25 58.66 82.25 70.41 85.29 70.41 85.29 58.66 88.43 58.66 88.43 56.51 79.11 56.51 79.11 58.66"></polygon><polygon class="cls-1" points="109.94 65.35 108.21 56.96 106.23 56.96 104.56 65.35 103.09 56.51 100.02 56.51 102.8 70.41 105.49 70.41 107.25 62.44 108.98 70.41 111.67 70.41 114.52 56.51 111.44 56.51 109.94 65.35"></polygon><path class="cls-1" d="M130.43,56.51l-3.87,13.89h3.04l.74-3.04h3.46l.67,3.04h3.17l-3.87-13.89h-3.33ZM130.81,65.25l1.28-5.31,1.18,5.31h-2.46Z"></path><path class="cls-1" d="M158.91,64.42c.35-.22.58-.54.7-.9.13-.35.19-.77.19-1.18v-3.01c0-.45-.06-.86-.19-1.22s-.38-.64-.7-.9c-.35-.22-.8-.42-1.41-.54s-1.34-.19-2.27-.19h-5.06v13.92h3.04v-5.25h1.57l1.92,5.25h3.14l-2.05-5.51c.48-.13.86-.29,1.12-.48ZM156.8,62.21c0,.13-.03.26-.06.38s-.1.19-.22.26c-.13.06-.26.13-.45.16s-.45.06-.8.06h-1.98v-4.39h1.98c.32,0,.61.03.8.06.19.03.35.1.48.16s.19.16.22.26.06.22.06.35v2.69h-.03Z"></path><polygon class="cls-1" points="174.15 64.26 178.95 64.26 178.95 62.24 174.15 62.24 174.15 58.66 179.4 58.66 179.4 56.51 171.11 56.51 171.11 70.41 179.56 70.41 179.56 68.26 174.15 68.26 174.15 64.26"></polygon></svg>